#!OML:ASF H:\GeneralSubjects\Female5\Project 1\Capture day 1\Session 1\Female5.ASF
:FULLY-SPECIFIED
:DEGREES
509
root -11.1562 14.9726 2.99952 195.9 -57.5927 -174.652
lowerback 19.8374 -4.57712 -4.41426
upperback -11.1428 -7.01629 6.07974
thorax -23.1198 -1.61109 12.5979
lowerneck -20.6807 -13.2936 -16.6068
upperneck 20.2499 -17.0426 12.8166
head 12.7629 -7.58685 4.29322
rclavicle 1.19345e-013 4.29375e-014
rhumerus -39.5043 31.3527 -45.9103
rradius 106.412
rwrist 3.40127
rhand -33.59 -9.00831
rfingers 7.12502
rthumb -6.78383 -38.8796
lclavicle 1.19345e-013 4.29375e-014
lhumerus 7.49431 -11.1703 64.7618
lradius 79.6812
lwrist -9.98105
lhand -35.7578 22.4573
lfingers 7.12502
lthumb -8.87613 52.2506
rfemur -44.1886 19.4999 26.9712
rtibia 43.5086
rfoot -10.6056 9.42556
rtoes 16.148
lfemur -37.3768 12.8703 -30.6583
ltibia 47.3971
lfoot -26.5176 -22.4619
ltoes -14.4718
510
root -11.3894 15.2654 3.05371 195.681 -52.1795 -175.422
lowerback 19.3189 -5.18151 -5.03234
upperback -11.7882 -8.18102 6.08494
thorax -23.2981 -1.99619 13.4121
lowerneck -19.5278 -13.3968 -17.9098
upperneck 20.9733 -17.342 13.2142
head 13.0604 -7.85646 4.62448
rclavicle 1.13432e-014 1.07344e-014
rhumerus -39.6457 31.3732 -43.6643
rradius 107.369
rwrist 1.38921
rhand -36.271 -8.74594
rfingers 7.12502
rthumb -9.37126 -38.5176
lclavicle 1.13432e-014 1.07344e-014
lhumerus 7.9325 -12.7048 61.4549
lradius 85.4492
lwrist -10.0385
lhand -35.9486 21.8043
lfingers 7.12502
lthumb -9.06018 51.5897
rfemur -40.6807 19.5907 26.789
rtibia 39.2876
rfoot -4.7922 10.7477
rtoes 20.0982
lfemur -32.5275 15.4261 -30.834
ltibia 42.8037
lfoot -26.3654 -20.2356
ltoes -15.279
511
root -11.6539 15.6061 3.08209 195.05 -46.3019 -176.03
lowerback 18.8284 -5.85134 -5.62141
upperback -12.2252 -9.41206 6.10645
thorax -23.1502 -2.45906 14.1788
lowerneck -19.3016 -13.3901 -18.5722
upperneck 21.974 -17.635 13.6521
head 13.6001 -8.04598 4.84458
rclavicle -1.80459e-014 5.20816e-014
rhumerus -38.5734 31.1153 -42.4299
rradius 106.515
rwrist 1.6933
rhand -37.085 -5.58124
rfingers 7.12502
rthumb -10.1566 -35.3161
lclavicle -1.80459e-014 5.20816e-014
lhumerus 7.00452 -14.3775 58.0247
lradius 89.6744
lwrist -11.4098
lhand -35.7057 21.8088
lfingers 7.12502
lthumb -8.82584 51.6043
rfemur -36.6469 19.4437 26.6697
rtibia 34.6701
rfoot 1.86683 11.5508
rtoes 23.1592
lfemur -26.7981 17.477 -30.6571
ltibia 37.2391
lfoot -26.3987 -17.2445
ltoes -15.6785
512
root -11.941 15.9892 3.08253 194.313 -39.8773 -176.722
lowerback 18.0509 -6.26806 -6.14611
upperback -12.6769 -10.2962 6.00102
thorax -22.9354 -2.82928 14.5677
lowerneck -18.7105 -13.4166 -20.3076
upperneck 24.0325 -18.2209 14.3947
head 14.763 -8.49776 5.32271
rclavicle -8.92046e-015 4.33351e-014
rhumerus -37.499 30.2491 -43.5327
rradius 104.013
rwrist 0.801506
rhand -37.3524 -1.693
rfingers 7.12502
rthumb -10.4146 -31.4151
lclavicle -8.92046e-015 4.33351e-014
lhumerus 4.90966 -16.1518 56.2089
lradius 93.0189
lwrist -12.3601
lhand -35.6202 18.9976
lfingers 7.12502
lthumb -8.74326 48.7965
rfemur -31.9941 19.7595 26.2337
rtibia 28.8447
rfoot 9.43137 10.8038
rtoes 25.6157
lfemur -20.4502 18.2284 -30.5284
ltibia 30.7309
lfoot -27.2694 -13.2207
ltoes -16.2951
513
root -12.2279 16.4063 3.05675 193.494 -32.7316 -177.29
lowerback 17.0263 -6.41629 -6.57827
upperback -13.2186 -10.8146 5.88056
thorax -22.7971 -3.07367 14.7396
lowerneck -18.4052 -13.446 -20.2995
upperneck 26.3289 -18.5517 12.6839
head 15.5467 -8.95988 4.56242
rclavicle -2.3556e-014 2.94201e-014
rhumerus -37.5136 31.2123 -46.1727
rradius 101.572
rwrist 0.84779
rhand -38.6307 -2.71289
rfingers 7.12502
rthumb -11.6476 -32.3691
lclavicle -2.3556e-014 2.94201e-014
lhumerus 0.981056 -18.2265 56.1307
lradius 95.4198
lwrist -12.6594
lhand -34.8797 26.6272
lfingers 7.12502
lthumb -8.02863 56.4547
rfemur -26.8903 20.6439 25.7366
rtibia 21.5338
rfoot 18.0208 7.69494
rtoes 27.2497
lfemur -14.2393 16.8336 -30.6745
ltibia 23.8325
lfoot -30.1021 -8.37543
ltoes -17.0781
514
root -12.503 16.8486 3.00294 192.321 -24.9452 -177.348
lowerback 16.276 -6.25028 -6.75858
upperback -13.8254 -10.8693 5.97589
thorax -23.0846 -3.08706 14.9992
lowerneck -17.718 -13.3459 -20.1989
upperneck 28.8102 -18.7771 10.3406
head 16.2452 -9.53253 3.52746
rclavicle -2.51463e-014 7.95139e-015
rhumerus -35.67 31.9359 -50.3492
rradius 96.3828
rwrist -0.581701
rhand -38.9631 -2.46642
rfingers 7.12502
rthumb -11.9681 -32.1043
lclavicle -2.51463e-014 7.95139e-015
lhumerus -4.85345 -20.5884 57.1064
lradius 97.0239
lwrist -13.6433
lhand -34.938 26.3138
lfingers 7.12502
lthumb -8.08492 56.1392
rfemur -21.6443 21.3989 26.1119
rtibia 13.5321
rfoot 27.6514 3.86135
rtoes 25.4366
lfemur -8.71465 13.1373 -30.8695
ltibia 17.4807
lfoot -35.7239 -2.65402
ltoes -18.7969
